<svg width="26" height="26" viewBox="0 0 26 26" fill="none" xmlns="http://www.w3.org/2000/svg">
<path d="M13 13C14.7239 13 16.3772 12.3152 17.5962 11.0962C18.8152 9.87721 19.5 8.22391 19.5 6.5C19.5 4.77609 18.8152 3.12279 17.5962 1.90381C16.3772 0.68482 14.7239 0 13 0C11.2761 0 9.62279 0.68482 8.40381 1.90381C7.18482 3.12279 6.5 4.77609 6.5 6.5C6.5 8.22391 7.18482 9.87721 8.40381 11.0962C9.62279 12.3152 11.2761 13 13 13ZM17.3333 6.5C17.3333 7.64927 16.8768 8.75147 16.0641 9.56413C15.2515 10.3768 14.1493 10.8333 13 10.8333C11.8507 10.8333 10.7485 10.3768 9.93587 9.56413C9.12321 8.75147 8.66667 7.64927 8.66667 6.5C8.66667 5.35073 9.12321 4.24853 9.93587 3.43587C10.7485 2.62321 11.8507 2.16667 13 2.16667C14.1493 2.16667 15.2515 2.62321 16.0641 3.43587C16.8768 4.24853 17.3333 5.35073 17.3333 6.5ZM26 23.8333C26 26 23.8333 26 23.8333 26H2.16667C2.16667 26 0 26 0 23.8333C0 21.6667 2.16667 15.1667 13 15.1667C23.8333 15.1667 26 21.6667 26 23.8333ZM23.8333 23.8247C23.8312 23.2917 23.4997 21.6883 22.0307 20.2193C20.618 18.8067 17.9595 17.3333 13 17.3333C8.03833 17.3333 5.382 18.8067 3.96933 20.2193C2.50033 21.6883 2.171 23.2917 2.16667 23.8247H23.8333Z" fill="black"/>
</svg>
