<svg width="32" height="32" viewBox="0 0 32 32" fill="none" xmlns="http://www.w3.org/2000/svg">
<path d="M9.33331 29.3333C8.59998 29.3333 7.97242 29.0724 7.45065 28.5507C6.92798 28.028 6.66665 27.4 6.66665 26.6667C6.66665 25.9333 6.92798 25.3053 7.45065 24.7827C7.97242 24.2609 8.59998 24 9.33331 24C10.0666 24 10.6942 24.2609 11.216 24.7827C11.7386 25.3053 12 25.9333 12 26.6667C12 27.4 11.7386 28.028 11.216 28.5507C10.6942 29.0724 10.0666 29.3333 9.33331 29.3333ZM22.6666 29.3333C21.9333 29.3333 21.3058 29.0724 20.784 28.5507C20.2613 28.028 20 27.4 20 26.6667C20 25.9333 20.2613 25.3053 20.784 24.7827C21.3058 24.2609 21.9333 24 22.6666 24C23.4 24 24.028 24.2609 24.5506 24.7827C25.0724 25.3053 25.3333 25.9333 25.3333 26.6667C25.3333 27.4 25.0724 28.028 24.5506 28.5507C24.028 29.0724 23.4 29.3333 22.6666 29.3333ZM8.19998 7.99999L11.4 14.6667H20.7333L24.4 7.99999H8.19998ZM6.93331 5.33332H26.6C27.1111 5.33332 27.5 5.56088 27.7666 6.01599C28.0333 6.47199 28.0444 6.93332 27.8 7.39999L23.0666 15.9333C22.8222 16.3778 22.4942 16.7222 22.0826 16.9667C21.672 17.2111 21.2222 17.3333 20.7333 17.3333H10.8L9.33331 20H25.3333V22.6667H9.33331C8.33331 22.6667 7.57776 22.2275 7.06665 21.3493C6.55554 20.472 6.53331 19.6 6.99998 18.7333L8.79998 15.4667L3.99998 5.33332H1.33331V2.66666H5.66665L6.93331 5.33332ZM11.4 14.6667H20.7333H11.4Z" fill="black"/>
</svg>
