<svg width="276" height="39" viewBox="0 0 276 39" fill="none" xmlns="http://www.w3.org/2000/svg">
<path d="M11.954 8.25592C11.954 8.25592 10.5516 17.8865 20.6061 21C21.4528 10.5514 11.954 8.25592 11.954 8.25592Z" stroke="white" stroke-width="2" stroke-miterlimit="10" stroke-linecap="round" stroke-linejoin="round"/>
<path d="M29.0201 36.0395C29.0201 36.0395 36.7726 32.5303 37.8839 21.8971C38.9688 11.2639 32.0894 6.25067 32.0894 6.25067C32.0894 6.25067 24.3369 9.7599 23.2256 20.3931C23.0933 21.8971 23.0933 23.2691 23.2256 24.5356" stroke="white" stroke-width="2" stroke-miterlimit="10" stroke-linecap="round" stroke-linejoin="round"/>
<path d="M31.2957 34.6411C31.2957 34.6411 29.4965 26.3298 19.3362 23.0052C9.14947 19.6543 2.74637 25.2744 2.74637 25.2744C2.74637 25.2744 4.54559 33.5857 14.7059 36.9102C24.8926 40.2612 31.2957 34.6411 31.2957 34.6411Z" stroke="white" stroke-width="2" stroke-miterlimit="10" stroke-linecap="round" stroke-linejoin="round"/>
<path d="M31.031 34.4828L30.8194 17.306" stroke="white" stroke-width="2" stroke-miterlimit="10" stroke-linecap="round" stroke-linejoin="round"/>
<path d="M30.6077 34.2717L13.1711 29.0211" stroke="white" stroke-width="2" stroke-miterlimit="10" stroke-linecap="round" stroke-linejoin="round"/>
<path d="M1.29105 22.8469C1.10584 21.7915 1 20.657 1 19.5488C1 14.0607 3.40778 9.12665 7.21789 5.72296" stroke="white" stroke-width="2" stroke-miterlimit="10" stroke-linecap="round" stroke-linejoin="round"/>
<path d="M10.446 3.40105C13.1448 1.87071 16.267 1 19.6008 1C23.4638 1 27.0623 2.18733 30.0521 4.19261" stroke="white" stroke-width="2" stroke-miterlimit="10" stroke-linecap="round" stroke-linejoin="round"/>
<path d="M59.8239 26.6721C59.1519 26.2401 58.8159 25.6881 58.8159 25.0161C58.8159 24.0881 59.5519 23.5121 61.0239 23.2881C61.2799 24.7761 61.8239 25.8081 62.6559 26.3841C63.3919 26.8961 64.1679 27.1521 64.9839 27.1521C65.8159 27.1521 66.5279 26.9041 67.1199 26.4081C67.7279 25.8961 68.0319 25.0641 68.0319 23.9121C68.0319 23.0481 67.7199 22.3681 67.0959 21.8721C66.4879 21.3601 65.7119 20.9121 64.7679 20.5281C63.8239 20.1441 63.1839 19.8801 62.8479 19.7361C62.5119 19.5761 62.0799 19.3441 61.5519 19.0401C61.0399 18.7361 60.6559 18.4481 60.3999 18.1761C59.7599 17.4401 59.4399 16.5921 59.4399 15.6321C59.4399 14.1281 59.9999 12.9921 61.1199 12.2241C62.2399 11.4561 63.7999 11.0721 65.7999 11.0721C66.9359 11.0721 68.2559 11.2001 69.7599 11.4561V15.0081H68.9679L68.0079 12.1761C67.2079 11.9201 66.3919 11.7921 65.5599 11.7921C64.7439 11.7921 64.0319 12.0561 63.4239 12.5841C62.8159 13.0961 62.5119 13.8641 62.5119 14.8881C62.5119 16.0561 63.0399 16.9281 64.0959 17.5041C64.6239 17.7761 65.2479 18.0481 65.9679 18.3201C66.6879 18.5921 67.2079 18.8001 67.5279 18.9441C67.8479 19.0721 68.2719 19.2881 68.7999 19.5921C69.3279 19.8801 69.7199 20.1681 69.9759 20.4561C70.2319 20.7441 70.4639 21.1281 70.6719 21.6081C70.8799 22.0721 70.9839 22.5841 70.9839 23.1441C70.9839 24.5041 70.4079 25.6161 69.2559 26.4801C68.1039 27.3441 66.5279 27.7761 64.5279 27.7761C62.5439 27.7761 60.9759 27.4081 59.8239 26.6721ZM83.8772 19.6641C83.9572 19.3441 83.9972 18.9841 83.9972 18.5841C83.9972 18.1681 83.8772 17.7441 83.6372 17.3121C83.2852 16.6081 82.7492 16.2561 82.0292 16.2561C80.1092 16.2561 79.1492 18.0641 79.1492 21.6801C79.1492 25.2801 80.1332 27.0801 82.1012 27.0801C83.5892 27.0801 84.7812 26.3601 85.6772 24.9201C86.0292 25.0321 86.2052 25.2081 86.2052 25.4481C86.2052 25.6721 86.0532 25.9601 85.7492 26.3121C85.4612 26.6481 84.9492 26.9761 84.2132 27.2961C83.4932 27.6001 82.6612 27.7521 81.7172 27.7521C79.9092 27.7521 78.4772 27.2001 77.4212 26.0961C76.3812 24.9761 75.8612 23.4881 75.8612 21.6321C75.8612 19.7601 76.4052 18.2721 77.4932 17.1681C78.5812 16.0641 80.1092 15.5121 82.0772 15.5121C82.6852 15.5121 83.2852 15.5921 83.8772 15.7521C84.4692 15.8961 85.0292 16.2161 85.5572 16.7121C86.0852 17.2081 86.3492 17.8081 86.3492 18.5121C86.3492 19.2001 86.0372 19.6481 85.4132 19.8561C85.1892 19.9361 84.9412 19.9761 84.6692 19.9761C84.3972 19.9761 84.1332 19.8721 83.8772 19.6641ZM99.1841 19.1121C99.1841 17.1601 98.5041 16.1841 97.1441 16.1841C95.7201 16.1841 94.8561 17.4321 94.5521 19.9281H99.1361C99.1681 19.6081 99.1841 19.3361 99.1841 19.1121ZM96.9281 27.7521C95.2161 27.7521 93.8241 27.1921 92.7521 26.0721C91.6961 24.9521 91.1681 23.4721 91.1681 21.6321C91.1681 19.7921 91.7201 18.3121 92.8241 17.1921C93.9441 16.0721 95.3601 15.5121 97.0721 15.5121C98.7841 15.5121 100.064 15.8801 100.912 16.6161C101.76 17.3361 102.184 18.3441 102.184 19.6401C102.184 20.0081 102.152 20.3921 102.088 20.7921H94.4801V21.6321C94.4801 23.4241 94.7041 24.7841 95.1521 25.7121C95.6001 26.6241 96.2721 27.0801 97.1681 27.0801C98.0801 27.0801 98.9041 26.8961 99.6401 26.5281C100.392 26.1441 100.976 25.6081 101.392 24.9201C101.744 25.0321 101.92 25.2001 101.92 25.4241C101.92 25.8241 101.544 26.2881 100.792 26.8161C100.424 27.0721 99.8961 27.2961 99.2081 27.4881C98.5361 27.6641 97.7761 27.7521 96.9281 27.7521ZM116.419 26.7921L116.563 19.1841C116.563 18.2401 116.443 17.5521 116.203 17.1201C115.963 16.6881 115.483 16.4721 114.763 16.4721C114.043 16.4721 113.339 16.9041 112.651 17.7681C111.979 18.6161 111.627 19.3521 111.595 19.9761V26.7921L113.395 26.9361V27.4881H106.963V26.9361L108.547 26.7921V16.5681L106.579 16.4721V15.9681L111.499 15.6801L111.379 18.1281H111.619C112.051 17.3281 112.635 16.7121 113.371 16.2801C114.107 15.8321 114.899 15.6081 115.747 15.6081C118.307 15.6081 119.587 16.8401 119.587 19.3041C119.587 21.0801 119.531 23.5761 119.419 26.7921L121.075 26.9361V27.4881H115.267V26.9361L116.419 26.7921ZM129.757 27.7521C128.221 27.7521 127.245 27.2161 126.829 26.1441C126.653 25.6801 126.565 25.0961 126.565 24.3921C126.565 21.7361 126.605 19.0721 126.685 16.4001H125.053V15.7761H126.709L126.733 12.2481H129.805L129.733 15.7761H133.093V16.4001H129.733L129.685 18.3441C129.637 20.9361 129.613 23.3121 129.613 25.4721C129.613 26.0961 129.677 26.5201 129.805 26.7441C129.949 26.9681 130.197 27.0801 130.549 27.0801C130.917 27.0801 131.317 26.8321 131.749 26.3361C132.197 25.8241 132.517 25.2161 132.709 24.5121C133.029 24.5121 133.189 24.6241 133.189 24.8481C133.189 24.8961 133.181 24.9521 133.165 25.0161C132.909 25.8481 132.469 26.5121 131.845 27.0081C131.237 27.5041 130.541 27.7521 129.757 27.7521ZM145.599 19.1121C145.599 17.1601 144.919 16.1841 143.559 16.1841C142.135 16.1841 141.271 17.4321 140.967 19.9281H145.551C145.583 19.6081 145.599 19.3361 145.599 19.1121ZM143.343 27.7521C141.631 27.7521 140.239 27.1921 139.167 26.0721C138.111 24.9521 137.583 23.4721 137.583 21.6321C137.583 19.7921 138.135 18.3121 139.239 17.1921C140.359 16.0721 141.775 15.5121 143.487 15.5121C145.199 15.5121 146.479 15.8801 147.327 16.6161C148.175 17.3361 148.599 18.3441 148.599 19.6401C148.599 20.0081 148.567 20.3921 148.503 20.7921H140.895V21.6321C140.895 23.4241 141.119 24.7841 141.567 25.7121C142.015 26.6241 142.687 27.0801 143.583 27.0801C144.495 27.0801 145.319 26.8961 146.055 26.5281C146.807 26.1441 147.391 25.6081 147.807 24.9201C148.159 25.0321 148.335 25.2001 148.335 25.4241C148.335 25.8241 147.959 26.2881 147.207 26.8161C146.839 27.0721 146.311 27.2961 145.623 27.4881C144.951 27.6641 144.191 27.7521 143.343 27.7521ZM158.658 27.8481C157.202 27.8481 155.994 27.3601 155.034 26.3841C154.074 25.4081 153.594 23.9361 153.594 21.9681C153.594 20.0001 154.162 18.4481 155.298 17.3121C156.45 16.1761 157.978 15.6081 159.882 15.6081C160.874 15.6081 161.81 15.8401 162.69 16.3041V10.2081L160.626 10.0641V9.4641L165.762 9.0561V26.9361L167.802 27.0321L167.826 27.5841L162.81 27.8721L162.858 25.7121H162.714C162.314 26.3841 161.746 26.9121 161.01 27.2961C160.274 27.6641 159.49 27.8481 158.658 27.8481ZM162.666 23.7921V17.1921C162.026 16.6001 161.21 16.3041 160.218 16.3041C158.954 16.3041 158.09 16.8881 157.626 18.0561C157.242 19.0801 157.05 20.3841 157.05 21.9681C157.05 25.3761 157.81 27.0801 159.33 27.0801C160.226 27.0801 161.002 26.6961 161.658 25.9281C162.33 25.1601 162.666 24.4481 162.666 23.7921ZM190.41 11.2881L195.69 11.5041L195.834 15.8721H194.97L194.154 12.7281C193.05 12.3601 191.986 12.1761 190.962 12.1761C189.058 12.1761 187.514 12.8081 186.33 14.0721C185.146 15.3201 184.554 17.1761 184.554 19.6401C184.554 22.0881 185.13 23.8881 186.282 25.0401C187.434 26.1921 188.882 26.7681 190.626 26.7681C192.386 26.7681 193.658 26.5761 194.442 26.1921L195.33 23.4561H196.098L195.954 26.9841C193.954 27.4161 192.202 27.6321 190.698 27.6321C189.21 27.6321 187.938 27.5121 186.882 27.2721C185.826 27.0161 184.834 26.6081 183.906 26.0481C182.978 25.4881 182.25 24.6801 181.722 23.6241C181.21 22.5681 180.954 21.3041 180.954 19.8321C180.954 18.3601 181.218 17.0641 181.746 15.9441C182.29 14.8081 183.018 13.9121 183.93 13.2561C185.754 11.9441 187.914 11.2881 190.41 11.2881ZM207.924 21.8721C206.068 21.8721 204.9 22.3601 204.42 23.3361C204.212 23.7521 204.108 24.2721 204.108 24.8961C204.108 25.9681 204.476 26.5921 205.212 26.7681C205.324 26.8001 205.444 26.8161 205.572 26.8161C206.084 26.8161 206.596 26.5521 207.108 26.0241C207.62 25.4801 207.892 24.7841 207.924 23.9361V21.8721ZM204.084 19.5201C203.732 19.7601 203.364 19.8801 202.98 19.8801C202.596 19.8801 202.268 19.7521 201.996 19.4961C201.724 19.2401 201.588 18.8641 201.588 18.3681C201.588 17.8561 201.74 17.4001 202.044 17.0001C202.348 16.6001 202.74 16.3041 203.22 16.1121C204.164 15.7121 205.06 15.5121 205.908 15.5121C207.796 15.5121 209.084 15.8481 209.772 16.5201C210.46 17.1761 210.804 18.1921 210.804 19.5681V26.7921L212.82 26.9361V27.4641L208.236 27.7521L208.02 25.7361C207.268 27.0961 205.972 27.7761 204.132 27.7761C203.3 27.7761 202.58 27.5281 201.972 27.0321C201.38 26.5201 201.084 25.8081 201.084 24.8961C201.1 23.6801 201.708 22.7681 202.908 22.1601C204.108 21.5361 205.78 21.2241 207.924 21.2241V19.1601C207.924 18.1841 207.788 17.4321 207.516 16.9041C207.244 16.3761 206.74 16.1121 206.004 16.1121C205.268 16.1121 204.716 16.4161 204.348 17.0241C204.108 17.4241 203.988 17.8481 203.988 18.2961C203.988 18.7441 204.02 19.1521 204.084 19.5201ZM226.033 26.7921L226.177 19.1841C226.177 18.2401 226.057 17.5521 225.817 17.1201C225.577 16.6881 225.097 16.4721 224.377 16.4721C223.657 16.4721 222.953 16.9041 222.265 17.7681C221.593 18.6161 221.241 19.3521 221.209 19.9761V26.7921L223.009 26.9361V27.4881H216.577V26.9361L218.161 26.7921V16.5681L216.193 16.4721V15.9681L221.113 15.6801L220.993 18.1281H221.233C221.665 17.3281 222.249 16.7121 222.985 16.2801C223.721 15.8321 224.513 15.6081 225.361 15.6081C227.921 15.6081 229.201 16.8401 229.201 19.3041C229.201 21.0801 229.145 23.5761 229.033 26.7921L230.689 26.9361V27.4881H224.881V26.9361L226.033 26.7921ZM240.258 27.8481C238.802 27.8481 237.594 27.3601 236.634 26.3841C235.674 25.4081 235.194 23.9361 235.194 21.9681C235.194 20.0001 235.762 18.4481 236.898 17.3121C238.05 16.1761 239.578 15.6081 241.482 15.6081C242.474 15.6081 243.41 15.8401 244.29 16.3041V10.2081L242.226 10.0641V9.4641L247.362 9.0561V26.9361L249.402 27.0321L249.426 27.5841L244.41 27.8721L244.458 25.7121H244.314C243.914 26.3841 243.346 26.9121 242.61 27.2961C241.874 27.6641 241.09 27.8481 240.258 27.8481ZM244.266 23.7921V17.1921C243.626 16.6001 242.81 16.3041 241.818 16.3041C240.554 16.3041 239.69 16.8881 239.226 18.0561C238.842 19.0801 238.65 20.3841 238.65 21.9681C238.65 25.3761 239.41 27.0801 240.93 27.0801C241.826 27.0801 242.602 26.6961 243.258 25.9281C243.93 25.1601 244.266 24.4481 244.266 23.7921ZM259.214 27.4881H253.022V26.9361L254.582 26.7921V10.2561L252.518 10.1841V9.6081L257.654 9.0561V26.7921L259.214 26.9361V27.4881ZM271.762 19.1121C271.762 17.1601 271.082 16.1841 269.722 16.1841C268.298 16.1841 267.434 17.4321 267.13 19.9281H271.714C271.746 19.6081 271.762 19.3361 271.762 19.1121ZM269.506 27.7521C267.794 27.7521 266.402 27.1921 265.33 26.0721C264.274 24.9521 263.746 23.4721 263.746 21.6321C263.746 19.7921 264.298 18.3121 265.402 17.1921C266.522 16.0721 267.938 15.5121 269.65 15.5121C271.362 15.5121 272.642 15.8801 273.49 16.6161C274.338 17.3361 274.762 18.3441 274.762 19.6401C274.762 20.0081 274.73 20.3921 274.666 20.7921H267.058V21.6321C267.058 23.4241 267.282 24.7841 267.73 25.7121C268.178 26.6241 268.85 27.0801 269.746 27.0801C270.658 27.0801 271.482 26.8961 272.218 26.5281C272.97 26.1441 273.554 25.6081 273.97 24.9201C274.322 25.0321 274.498 25.2001 274.498 25.4241C274.498 25.8241 274.122 26.2881 273.37 26.8161C273.002 27.0721 272.474 27.2961 271.786 27.4881C271.114 27.6641 270.354 27.7521 269.506 27.7521Z" fill="white"/>
<path d="M59.8239 26.6721C59.1519 26.2401 58.8159 25.6881 58.8159 25.0161C58.8159 24.0881 59.5519 23.5121 61.0239 23.2881C61.2799 24.7761 61.8239 25.8081 62.6559 26.3841C63.3919 26.8961 64.1679 27.1521 64.9839 27.1521C65.8159 27.1521 66.5279 26.9041 67.1199 26.4081C67.7279 25.8961 68.0319 25.0641 68.0319 23.9121C68.0319 23.0481 67.7199 22.3681 67.0959 21.8721C66.4879 21.3601 65.7119 20.9121 64.7679 20.5281C63.8239 20.1441 63.1839 19.8801 62.8479 19.7361C62.5119 19.5761 62.0799 19.3441 61.5519 19.0401C61.0399 18.7361 60.6559 18.4481 60.3999 18.1761C59.7599 17.4401 59.4399 16.5921 59.4399 15.6321C59.4399 14.1281 59.9999 12.9921 61.1199 12.2241C62.2399 11.4561 63.7999 11.0721 65.7999 11.0721C66.9359 11.0721 68.2559 11.2001 69.7599 11.4561V15.0081H68.9679L68.0079 12.1761C67.2079 11.9201 66.3919 11.7921 65.5599 11.7921C64.7439 11.7921 64.0319 12.0561 63.4239 12.5841C62.8159 13.0961 62.5119 13.8641 62.5119 14.8881C62.5119 16.0561 63.0399 16.9281 64.0959 17.5041C64.6239 17.7761 65.2479 18.0481 65.9679 18.3201C66.6879 18.5921 67.2079 18.8001 67.5279 18.9441C67.8479 19.0721 68.2719 19.2881 68.7999 19.5921C69.3279 19.8801 69.7199 20.1681 69.9759 20.4561C70.2319 20.7441 70.4639 21.1281 70.6719 21.6081C70.8799 22.0721 70.9839 22.5841 70.9839 23.1441C70.9839 24.5041 70.4079 25.6161 69.2559 26.4801C68.1039 27.3441 66.5279 27.7761 64.5279 27.7761C62.5439 27.7761 60.9759 27.4081 59.8239 26.6721ZM83.8772 19.6641C83.9572 19.3441 83.9972 18.9841 83.9972 18.5841C83.9972 18.1681 83.8772 17.7441 83.6372 17.3121C83.2852 16.6081 82.7492 16.2561 82.0292 16.2561C80.1092 16.2561 79.1492 18.0641 79.1492 21.6801C79.1492 25.2801 80.1332 27.0801 82.1012 27.0801C83.5892 27.0801 84.7812 26.3601 85.6772 24.9201C86.0292 25.0321 86.2052 25.2081 86.2052 25.4481C86.2052 25.6721 86.0532 25.9601 85.7492 26.3121C85.4612 26.6481 84.9492 26.9761 84.2132 27.2961C83.4932 27.6001 82.6612 27.7521 81.7172 27.7521C79.9092 27.7521 78.4772 27.2001 77.4212 26.0961C76.3812 24.9761 75.8612 23.4881 75.8612 21.6321C75.8612 19.7601 76.4052 18.2721 77.4932 17.1681C78.5812 16.0641 80.1092 15.5121 82.0772 15.5121C82.6852 15.5121 83.2852 15.5921 83.8772 15.7521C84.4692 15.8961 85.0292 16.2161 85.5572 16.7121C86.0852 17.2081 86.3492 17.8081 86.3492 18.5121C86.3492 19.2001 86.0372 19.6481 85.4132 19.8561C85.1892 19.9361 84.9412 19.9761 84.6692 19.9761C84.3972 19.9761 84.1332 19.8721 83.8772 19.6641ZM99.1841 19.1121C99.1841 17.1601 98.5041 16.1841 97.1441 16.1841C95.7201 16.1841 94.8561 17.4321 94.5521 19.9281H99.1361C99.1681 19.6081 99.1841 19.3361 99.1841 19.1121ZM96.9281 27.7521C95.2161 27.7521 93.8241 27.1921 92.7521 26.0721C91.6961 24.9521 91.1681 23.4721 91.1681 21.6321C91.1681 19.7921 91.7201 18.3121 92.8241 17.1921C93.9441 16.0721 95.3601 15.5121 97.0721 15.5121C98.7841 15.5121 100.064 15.8801 100.912 16.6161C101.76 17.3361 102.184 18.3441 102.184 19.6401C102.184 20.0081 102.152 20.3921 102.088 20.7921H94.4801V21.6321C94.4801 23.4241 94.7041 24.7841 95.1521 25.7121C95.6001 26.6241 96.2721 27.0801 97.1681 27.0801C98.0801 27.0801 98.9041 26.8961 99.6401 26.5281C100.392 26.1441 100.976 25.6081 101.392 24.9201C101.744 25.0321 101.92 25.2001 101.92 25.4241C101.92 25.8241 101.544 26.2881 100.792 26.8161C100.424 27.0721 99.8961 27.2961 99.2081 27.4881C98.5361 27.6641 97.7761 27.7521 96.9281 27.7521ZM116.419 26.7921L116.563 19.1841C116.563 18.2401 116.443 17.5521 116.203 17.1201C115.963 16.6881 115.483 16.4721 114.763 16.4721C114.043 16.4721 113.339 16.9041 112.651 17.7681C111.979 18.6161 111.627 19.3521 111.595 19.9761V26.7921L113.395 26.9361V27.4881H106.963V26.9361L108.547 26.7921V16.5681L106.579 16.4721V15.9681L111.499 15.6801L111.379 18.1281H111.619C112.051 17.3281 112.635 16.7121 113.371 16.2801C114.107 15.8321 114.899 15.6081 115.747 15.6081C118.307 15.6081 119.587 16.8401 119.587 19.3041C119.587 21.0801 119.531 23.5761 119.419 26.7921L121.075 26.9361V27.4881H115.267V26.9361L116.419 26.7921ZM129.757 27.7521C128.221 27.7521 127.245 27.2161 126.829 26.1441C126.653 25.6801 126.565 25.0961 126.565 24.3921C126.565 21.7361 126.605 19.0721 126.685 16.4001H125.053V15.7761H126.709L126.733 12.2481H129.805L129.733 15.7761H133.093V16.4001H129.733L129.685 18.3441C129.637 20.9361 129.613 23.3121 129.613 25.4721C129.613 26.0961 129.677 26.5201 129.805 26.7441C129.949 26.9681 130.197 27.0801 130.549 27.0801C130.917 27.0801 131.317 26.8321 131.749 26.3361C132.197 25.8241 132.517 25.2161 132.709 24.5121C133.029 24.5121 133.189 24.6241 133.189 24.8481C133.189 24.8961 133.181 24.9521 133.165 25.0161C132.909 25.8481 132.469 26.5121 131.845 27.0081C131.237 27.5041 130.541 27.7521 129.757 27.7521ZM145.599 19.1121C145.599 17.1601 144.919 16.1841 143.559 16.1841C142.135 16.1841 141.271 17.4321 140.967 19.9281H145.551C145.583 19.6081 145.599 19.3361 145.599 19.1121ZM143.343 27.7521C141.631 27.7521 140.239 27.1921 139.167 26.0721C138.111 24.9521 137.583 23.4721 137.583 21.6321C137.583 19.7921 138.135 18.3121 139.239 17.1921C140.359 16.0721 141.775 15.5121 143.487 15.5121C145.199 15.5121 146.479 15.8801 147.327 16.6161C148.175 17.3361 148.599 18.3441 148.599 19.6401C148.599 20.0081 148.567 20.3921 148.503 20.7921H140.895V21.6321C140.895 23.4241 141.119 24.7841 141.567 25.7121C142.015 26.6241 142.687 27.0801 143.583 27.0801C144.495 27.0801 145.319 26.8961 146.055 26.5281C146.807 26.1441 147.391 25.6081 147.807 24.9201C148.159 25.0321 148.335 25.2001 148.335 25.4241C148.335 25.8241 147.959 26.2881 147.207 26.8161C146.839 27.0721 146.311 27.2961 145.623 27.4881C144.951 27.6641 144.191 27.7521 143.343 27.7521ZM158.658 27.8481C157.202 27.8481 155.994 27.3601 155.034 26.3841C154.074 25.4081 153.594 23.9361 153.594 21.9681C153.594 20.0001 154.162 18.4481 155.298 17.3121C156.45 16.1761 157.978 15.6081 159.882 15.6081C160.874 15.6081 161.81 15.8401 162.69 16.3041V10.2081L160.626 10.0641V9.4641L165.762 9.0561V26.9361L167.802 27.0321L167.826 27.5841L162.81 27.8721L162.858 25.7121H162.714C162.314 26.3841 161.746 26.9121 161.01 27.2961C160.274 27.6641 159.49 27.8481 158.658 27.8481ZM162.666 23.7921V17.1921C162.026 16.6001 161.21 16.3041 160.218 16.3041C158.954 16.3041 158.09 16.8881 157.626 18.0561C157.242 19.0801 157.05 20.3841 157.05 21.9681C157.05 25.3761 157.81 27.0801 159.33 27.0801C160.226 27.0801 161.002 26.6961 161.658 25.9281C162.33 25.1601 162.666 24.4481 162.666 23.7921ZM190.41 11.2881L195.69 11.5041L195.834 15.8721H194.97L194.154 12.7281C193.05 12.3601 191.986 12.1761 190.962 12.1761C189.058 12.1761 187.514 12.8081 186.33 14.0721C185.146 15.3201 184.554 17.1761 184.554 19.6401C184.554 22.0881 185.13 23.8881 186.282 25.0401C187.434 26.1921 188.882 26.7681 190.626 26.7681C192.386 26.7681 193.658 26.5761 194.442 26.1921L195.33 23.4561H196.098L195.954 26.9841C193.954 27.4161 192.202 27.6321 190.698 27.6321C189.21 27.6321 187.938 27.5121 186.882 27.2721C185.826 27.0161 184.834 26.6081 183.906 26.0481C182.978 25.4881 182.25 24.6801 181.722 23.6241C181.21 22.5681 180.954 21.3041 180.954 19.8321C180.954 18.3601 181.218 17.0641 181.746 15.9441C182.29 14.8081 183.018 13.9121 183.93 13.2561C185.754 11.9441 187.914 11.2881 190.41 11.2881ZM207.924 21.8721C206.068 21.8721 204.9 22.3601 204.42 23.3361C204.212 23.7521 204.108 24.2721 204.108 24.8961C204.108 25.9681 204.476 26.5921 205.212 26.7681C205.324 26.8001 205.444 26.8161 205.572 26.8161C206.084 26.8161 206.596 26.5521 207.108 26.0241C207.62 25.4801 207.892 24.7841 207.924 23.9361V21.8721ZM204.084 19.5201C203.732 19.7601 203.364 19.8801 202.98 19.8801C202.596 19.8801 202.268 19.7521 201.996 19.4961C201.724 19.2401 201.588 18.8641 201.588 18.3681C201.588 17.8561 201.74 17.4001 202.044 17.0001C202.348 16.6001 202.74 16.3041 203.22 16.1121C204.164 15.7121 205.06 15.5121 205.908 15.5121C207.796 15.5121 209.084 15.8481 209.772 16.5201C210.46 17.1761 210.804 18.1921 210.804 19.5681V26.7921L212.82 26.9361V27.4641L208.236 27.7521L208.02 25.7361C207.268 27.0961 205.972 27.7761 204.132 27.7761C203.3 27.7761 202.58 27.5281 201.972 27.0321C201.38 26.5201 201.084 25.8081 201.084 24.8961C201.1 23.6801 201.708 22.7681 202.908 22.1601C204.108 21.5361 205.78 21.2241 207.924 21.2241V19.1601C207.924 18.1841 207.788 17.4321 207.516 16.9041C207.244 16.3761 206.74 16.1121 206.004 16.1121C205.268 16.1121 204.716 16.4161 204.348 17.0241C204.108 17.4241 203.988 17.8481 203.988 18.2961C203.988 18.7441 204.02 19.1521 204.084 19.5201ZM226.033 26.7921L226.177 19.1841C226.177 18.2401 226.057 17.5521 225.817 17.1201C225.577 16.6881 225.097 16.4721 224.377 16.4721C223.657 16.4721 222.953 16.9041 222.265 17.7681C221.593 18.6161 221.241 19.3521 221.209 19.9761V26.7921L223.009 26.9361V27.4881H216.577V26.9361L218.161 26.7921V16.5681L216.193 16.4721V15.9681L221.113 15.6801L220.993 18.1281H221.233C221.665 17.3281 222.249 16.7121 222.985 16.2801C223.721 15.8321 224.513 15.6081 225.361 15.6081C227.921 15.6081 229.201 16.8401 229.201 19.3041C229.201 21.0801 229.145 23.5761 229.033 26.7921L230.689 26.9361V27.4881H224.881V26.9361L226.033 26.7921ZM240.258 27.8481C238.802 27.8481 237.594 27.3601 236.634 26.3841C235.674 25.4081 235.194 23.9361 235.194 21.9681C235.194 20.0001 235.762 18.4481 236.898 17.3121C238.05 16.1761 239.578 15.6081 241.482 15.6081C242.474 15.6081 243.41 15.8401 244.29 16.3041V10.2081L242.226 10.0641V9.4641L247.362 9.0561V26.9361L249.402 27.0321L249.426 27.5841L244.41 27.8721L244.458 25.7121H244.314C243.914 26.3841 243.346 26.9121 242.61 27.2961C241.874 27.6641 241.09 27.8481 240.258 27.8481ZM244.266 23.7921V17.1921C243.626 16.6001 242.81 16.3041 241.818 16.3041C240.554 16.3041 239.69 16.8881 239.226 18.0561C238.842 19.0801 238.65 20.3841 238.65 21.9681C238.65 25.3761 239.41 27.0801 240.93 27.0801C241.826 27.0801 242.602 26.6961 243.258 25.9281C243.93 25.1601 244.266 24.4481 244.266 23.7921ZM259.214 27.4881H253.022V26.9361L254.582 26.7921V10.2561L252.518 10.1841V9.6081L257.654 9.0561V26.7921L259.214 26.9361V27.4881ZM271.762 19.1121C271.762 17.1601 271.082 16.1841 269.722 16.1841C268.298 16.1841 267.434 17.4321 267.13 19.9281H271.714C271.746 19.6081 271.762 19.3361 271.762 19.1121ZM269.506 27.7521C267.794 27.7521 266.402 27.1921 265.33 26.0721C264.274 24.9521 263.746 23.4721 263.746 21.6321C263.746 19.7921 264.298 18.3121 265.402 17.1921C266.522 16.0721 267.938 15.5121 269.65 15.5121C271.362 15.5121 272.642 15.8801 273.49 16.6161C274.338 17.3361 274.762 18.3441 274.762 19.6401C274.762 20.0081 274.73 20.3921 274.666 20.7921H267.058V21.6321C267.058 23.4241 267.282 24.7841 267.73 25.7121C268.178 26.6241 268.85 27.0801 269.746 27.0801C270.658 27.0801 271.482 26.8961 272.218 26.5281C272.97 26.1441 273.554 25.6081 273.97 24.9201C274.322 25.0321 274.498 25.2001 274.498 25.4241C274.498 25.8241 274.122 26.2881 273.37 26.8161C273.002 27.0721 272.474 27.2961 271.786 27.4881C271.114 27.6641 270.354 27.7521 269.506 27.7521Z" fill="white"/>
</svg>
